<svg xmlns="http://www.w3.org/2000/svg" style="display: none;">
    <symbol id="home" viewBox="0 0 640 640">
        <path d="M64.1 128C64.1 92.7 92.8 64 128.1 64L277.6 64C294.6 64 310.9 70.7 322.9 82.7L429.3 189.3C441.3 201.3 448 217.6 448 234.6L448 332.1L316 464.1L273.9 464.1L257.8 410.5C253.1 394.8 238.7 384.1 222.3 384.1C211 384.1 200.4 389.2 193.4 398L133.3 473C125 483.3 126.7 498.5 137 506.7C147.3 514.9 162.5 513.3 170.7 502.9L217.8 444.1L233 494.8C236 505 245.4 511.9 256 511.9L287.5 511.9C286.6 515 285.8 518.2 285.2 521.4L274.3 575.9L128.1 575.9C92.8 575.9 64.1 547.2 64.1 511.9L64.1 127.9zM272.1 122.5L272.1 216C272.1 229.3 282.8 240 296.1 240L389.6 240L272.1 122.5zM332.3 530.9C334.8 518.5 340.9 507.1 349.8 498.2L468.7 379.3L548.7 459.3L429.8 578.2C420.9 587.1 409.5 593.2 397.1 595.7L337.5 607.6C336.6 607.8 335.6 607.9 334.6 607.9C326.6 607.9 320 601.4 320 593.3C320 592.3 320.1 591.4 320.3 590.4L332.2 530.8zM600.1 407.9L571.3 436.7L491.3 356.7L520.1 327.9C542.2 305.8 578 305.8 600.1 327.9C622.2 350 622.2 385.8 600.1 407.9z"/>
    </symbol>

    <symbol id="signature-solid" viewBox="0 0 640 640">
        <path d="M64.1 128C64.1 92.7 92.8 64 128.1 64L277.6 64C294.6 64 310.9 70.7 322.9 82.7L429.3 189.3C441.3 201.3 448 217.6 448 234.6L448 332.1L316 464.1L273.9 464.1L257.8 410.5C253.1 394.8 238.7 384.1 222.3 384.1C211 384.1 200.4 389.2 193.4 398L133.3 473C125 483.3 126.7 498.5 137 506.7C147.3 514.9 162.5 513.3 170.7 502.9L217.8 444.1L233 494.8C236 505 245.4 511.9 256 511.9L287.5 511.9C286.6 515 285.8 518.2 285.2 521.4L274.3 575.9L128.1 575.9C92.8 575.9 64.1 547.2 64.1 511.9L64.1 127.9zM272.1 122.5L272.1 216C272.1 229.3 282.8 240 296.1 240L389.6 240L272.1 122.5zM332.3 530.9C334.8 518.5 340.9 507.1 349.8 498.2L468.7 379.3L548.7 459.3L429.8 578.2C420.9 587.1 409.5 593.2 397.1 595.7L337.5 607.6C336.6 607.8 335.6 607.9 334.6 607.9C326.6 607.9 320 601.4 320 593.3C320 592.3 320.1 591.4 320.3 590.4L332.2 530.8zM600.1 407.9L571.3 436.7L491.3 356.7L520.1 327.9C542.2 305.8 578 305.8 600.1 327.9C622.2 350 622.2 385.8 600.1 407.9z"/>
    </symbol>

    <symbol id="handshake-solid" viewBox="0 0 640 640">
        <path d="M300.9 149.2L184.3 278.8C179.7 283.9 179.9 291.8 184.8 296.7C215.3 327.2 264.8 327.2 295.3 296.7L327.1 264.9C331.3 260.7 336.6 258.4 342 258C348.8 257.4 355.8 259.7 361 264.9L537.6 440L608 384L608 96L496 160L472.2 144.1C456.4 133.6 437.9 128 418.9 128L348.5 128C347.4 128 346.2 128 345.1 128.1C328.2 129 312.3 136.6 300.9 149.2zM148.6 246.7L255.4 128L215.8 128C190.3 128 165.9 138.1 147.9 156.1L144 160L32 96L32 384L188.4 514.3C211.4 533.5 240.4 544 270.3 544L286 544L279 537C269.6 527.6 269.6 512.4 279 503.1C288.4 493.8 303.6 493.7 312.9 503.1L353.9 544.1L362.9 544.1C382 544.1 400.7 539.8 417.7 531.8L391 505C381.6 495.6 381.6 480.4 391 471.1C400.4 461.8 415.6 461.7 424.9 471.1L456.9 503.1L474.4 485.6C483.3 476.7 485.9 463.8 482 452.5L344.1 315.7L329.2 330.6C279.9 379.9 200.1 379.9 150.8 330.6C127.8 307.6 126.9 270.7 148.6 246.6z"/>
    </symbol>

    <symbol id="calendar-solid" viewBox="0 0 640 640">
        <path d="M224 64C241.7 64 256 78.3 256 96L256 128L384 128L384 96C384 78.3 398.3 64 416 64C433.7 64 448 78.3 448 96L448 128L480 128C515.3 128 544 156.7 544 192L544 480C544 515.3 515.3 544 480 544L160 544C124.7 544 96 515.3 96 480L96 192C96 156.7 124.7 128 160 128L192 128L192 96C192 78.3 206.3 64 224 64zM160 304L160 336C160 344.8 167.2 352 176 352L208 352C216.8 352 224 344.8 224 336L224 304C224 295.2 216.8 288 208 288L176 288C167.2 288 160 295.2 160 304zM288 304L288 336C288 344.8 295.2 352 304 352L336 352C344.8 352 352 344.8 352 336L352 304C352 295.2 344.8 288 336 288L304 288C295.2 288 288 295.2 288 304zM432 288C423.2 288 416 295.2 416 304L416 336C416 344.8 423.2 352 432 352L464 352C472.8 352 480 344.8 480 336L480 304C480 295.2 472.8 288 464 288L432 288zM160 432L160 464C160 472.8 167.2 480 176 480L208 480C216.8 480 224 472.8 224 464L224 432C224 423.2 216.8 416 208 416L176 416C167.2 416 160 423.2 160 432zM304 416C295.2 416 288 423.2 288 432L288 464C288 472.8 295.2 480 304 480L336 480C344.8 480 352 472.8 352 464L352 432C352 423.2 344.8 416 336 416L304 416zM416 432L416 464C416 472.8 423.2 480 432 480L464 480C472.8 480 480 472.8 480 464L480 432C480 423.2 472.8 416 464 416L432 416C423.2 416 416 423.2 416 432z"/>
    </symbol>

    <symbol id="support-solid" viewBox="0 0 640 640">
        <path d="M311.6 95C297.5 75.5 274.9 64 250.9 64C209.5 64 176 97.5 176 138.9L176 141.3C176 205.7 258 274.7 298.2 304.6C311.2 314.3 328.7 314.3 341.7 304.6C381.9 274.6 463.9 205.7 463.9 141.3L463.9 138.9C463.9 97.5 430.4 64 389 64C365 64 342.4 75.5 328.3 95L320 106.7L311.6 95zM141.3 405.5L98.7 448L64 448C46.3 448 32 462.3 32 480L32 544C32 561.7 46.3 576 64 576L384.5 576C413.5 576 441.8 566.7 465.2 549.5L591.8 456.2C609.6 443.1 613.4 418.1 600.3 400.3C587.2 382.5 562.2 378.7 544.4 391.8L424.6 480L312 480C298.7 480 288 469.3 288 456C288 442.7 298.7 432 312 432L384 432C401.7 432 416 417.7 416 400C416 382.3 401.7 368 384 368L231.8 368C197.9 368 165.3 381.5 141.3 405.5z"/>
    </symbol>

    <symbol id="users-solid" viewBox="0 0 640 640">
        <path d="M320 80C377.4 80 424 126.6 424 184C424 241.4 377.4 288 320 288C262.6 288 216 241.4 216 184C216 126.6 262.6 80 320 80zM96 152C135.8 152 168 184.2 168 224C168 263.8 135.8 296 96 296C56.2 296 24 263.8 24 224C24 184.2 56.2 152 96 152zM0 480C0 409.3 57.3 352 128 352C140.8 352 153.2 353.9 164.9 357.4C132 394.2 112 442.8 112 496L112 512C112 523.4 114.4 534.2 118.7 544L32 544C14.3 544 0 529.7 0 512L0 480zM521.3 544C525.6 534.2 528 523.4 528 512L528 496C528 442.8 508 394.2 475.1 357.4C486.8 353.9 499.2 352 512 352C582.7 352 640 409.3 640 480L640 512C640 529.7 625.7 544 608 544L521.3 544zM472 224C472 184.2 504.2 152 544 152C583.8 152 616 184.2 616 224C616 263.8 583.8 296 544 296C504.2 296 472 263.8 472 224zM160 496C160 407.6 231.6 336 320 336C408.4 336 480 407.6 480 496L480 512C480 529.7 465.7 544 448 544L192 544C174.3 544 160 529.7 160 512L160 496z"/>
    </symbol>

    <symbol id="building-solid" viewBox="0 0 640 640">
        <path d="M335.9 84.2C326.1 78.6 314 78.6 304.1 84.2L80.1 212.2C67.5 219.4 61.3 234.2 65 248.2C68.7 262.2 81.5 272 96 272L128 272L128 480L128 480L76.8 518.4C68.7 524.4 64 533.9 64 544C64 561.7 78.3 576 96 576L544 576C561.7 576 576 561.7 576 544C576 533.9 571.3 524.4 563.2 518.4L512 480L512 272L544 272C558.5 272 571.2 262.2 574.9 248.2C578.6 234.2 572.4 219.4 559.8 212.2L335.8 84.2zM464 272L464 480L400 480L400 272L464 272zM352 272L352 480L288 480L288 272L352 272zM240 272L240 480L176 480L176 272L240 272zM320 160C337.7 160 352 174.3 352 192C352 209.7 337.7 224 320 224C302.3 224 288 209.7 288 192C288 174.3 302.3 160 320 160z"/>
    </symbol>

    <symbol id="clipboard-user-solid" viewBox="0 0 640 640">
        <path d="M439.4 96L448 96C483.3 96 512 124.7 512 160L512 512C512 547.3 483.3 576 448 576L192 576C156.7 576 128 547.3 128 512L128 160C128 124.7 156.7 96 192 96L200.6 96C211.6 76.9 232.3 64 256 64L384 64C407.7 64 428.4 76.9 439.4 96zM376 176C389.3 176 400 165.3 400 152C400 138.7 389.3 128 376 128L264 128C250.7 128 240 138.7 240 152C240 165.3 250.7 176 264 176L376 176zM320 408C350.9 408 376 382.9 376 352C376 321.1 350.9 296 320 296C289.1 296 264 321.1 264 352C264 382.9 289.1 408 320 408zM226.3 477C213.4 492.6 228.5 512 248.7 512L391.2 512C411.4 512 426.5 492.6 413.6 477C398.9 459.3 376.7 448 351.9 448L287.9 448C263.1 448 240.9 459.3 226.2 477z"/>
    </symbol>

    <symbol id="more-dots-vertical-solid" viewBox="0 0 640 640">
        <path d="M320 208C289.1 208 264 182.9 264 152C264 121.1 289.1 96 320 96C350.9 96 376 121.1 376 152C376 182.9 350.9 208 320 208zM320 432C350.9 432 376 457.1 376 488C376 518.9 350.9 544 320 544C289.1 544 264 518.9 264 488C264 457.1 289.1 432 320 432zM376 320C376 350.9 350.9 376 320 376C289.1 376 264 350.9 264 320C264 289.1 289.1 264 320 264C350.9 264 376 289.1 376 320z"/>
    </symbol>
</svg>